REM DIRINDEX 1\2\4\8,1\2\4\9,1\2\4\10,1\2\5\11,1\2\5\12,1\2\5\13,1\2\5\14,1\2\5\15,1\3\6\16,1\3\6\17,1\3\6\18,1\3\7\19,1\3\7\20,1\3\7\21,1\3\7\22,1\3\7\23
REM DIRNAME "folder01","folder02","folder03","folder04","folder05","folder06","folder07","folder08","folder09","folder10","folder11","folder12","folder13","folder14","folder15","folder16","folder17","folder18","folder19","folder20","folder21","folder22","folder23"
TITLE ""
FILE "LR_black_phrase_E_C05.mp3" MP3
  TRACK 01 AUDIO
    TITLE "0:"
    INDEX 01 00:00:00
  TRACK 02 AUDIO
    TITLE "16:cjc171_10041"
    INDEX 01 00:00:14
  TRACK 03 AUDIO
    TITLE "0:"
    INDEX 01 00:01:35
  TRACK 04 AUDIO
    TITLE "17:cjc171_10042"
    INDEX 01 00:01:65
  TRACK 05 AUDIO
    TITLE "0:"
    INDEX 01 00:03:63
  TRACK 06 AUDIO
    TITLE "18:cjc171_10043"
    INDEX 01 00:04:39
  TRACK 07 AUDIO
    TITLE "0:"
    INDEX 01 00:06:40
  TRACK 08 AUDIO
    TITLE "16:cjc171_10044"
    INDEX 01 00:07:42
  TRACK 09 AUDIO
    TITLE "0:"
    INDEX 01 00:08:69
  TRACK 10 AUDIO
    TITLE "17:cjc171_10045"
    INDEX 01 00:09:25
  TRACK 11 AUDIO
    TITLE "0:"
    INDEX 01 00:12:06
  TRACK 12 AUDIO
    TITLE "18:cjc171_10046"
    INDEX 01 00:12:61
  TRACK 13 AUDIO
    TITLE "0:"
    INDEX 01 00:15:39
  TRACK 14 AUDIO
    TITLE "16:cjc171_10047"
    INDEX 01 00:16:41
  TRACK 15 AUDIO
    TITLE "0:"
    INDEX 01 00:17:44
  TRACK 16 AUDIO
    TITLE "17:cjc171_10048"
    INDEX 01 00:17:70
  TRACK 17 AUDIO
    TITLE "0:"
    INDEX 01 00:20:40
  TRACK 18 AUDIO
    TITLE "18:cjc171_10049"
    INDEX 01 00:21:18
  TRACK 19 AUDIO
    TITLE "0:"
    INDEX 01 00:23:68
  TRACK 20 AUDIO
    TITLE "16:cjc171_10050"
    INDEX 01 00:24:62
  TRACK 21 AUDIO
    TITLE "0:"
    INDEX 01 00:25:73
  TRACK 22 AUDIO
    TITLE "17:cjc171_10051"
    INDEX 01 00:26:19
  TRACK 23 AUDIO
    TITLE "0:"
    INDEX 01 00:28:05
  TRACK 24 AUDIO
    TITLE "18:cjc171_10052"
    INDEX 01 00:28:50
  TRACK 25 AUDIO
    TITLE "0:"
    INDEX 01 00:30:35
  TRACK 26 AUDIO
    TITLE "16:cjc171_10053"
    INDEX 01 00:31:34
  TRACK 27 AUDIO
    TITLE "0:"
    INDEX 01 00:32:59
  TRACK 28 AUDIO
    TITLE "17:cjc171_10054"
    INDEX 01 00:33:12
  TRACK 29 AUDIO
    TITLE "0:"
    INDEX 01 00:35:48
  TRACK 30 AUDIO
    TITLE "18:cjc171_10055"
    INDEX 01 00:36:32
  TRACK 31 AUDIO
    TITLE "0:"
    INDEX 01 00:38:68
  TRACK 32 AUDIO
    TITLE "16:cjc171_10056"
    INDEX 01 00:40:02
  TRACK 33 AUDIO
    TITLE "0:"
    INDEX 01 00:41:31
  TRACK 34 AUDIO
    TITLE "17:cjc171_10057"
    INDEX 01 00:41:62
  TRACK 35 AUDIO
    TITLE "0:"
    INDEX 01 00:43:73
  TRACK 36 AUDIO
    TITLE "18:cjc171_10058"
    INDEX 01 00:44:55
  TRACK 37 AUDIO
    TITLE "0:"
    INDEX 01 00:46:65
  TRACK 38 AUDIO
    TITLE "16:cjc171_10059"
    INDEX 01 00:47:65
  TRACK 39 AUDIO
    TITLE "0:"
    INDEX 01 00:49:11
  TRACK 40 AUDIO
    TITLE "17:cjc171_10060"
    INDEX 01 00:49:30
  TRACK 41 AUDIO
    TITLE "0:"
    INDEX 01 00:51:64
  TRACK 42 AUDIO
    TITLE "18:cjc171_10061"
    INDEX 01 00:52:35
  TRACK 43 AUDIO
    TITLE "0:"
    INDEX 01 00:54:71
  TRACK 44 AUDIO
    TITLE "16:cjc171_10062"
    INDEX 01 00:55:68
  TRACK 45 AUDIO
    TITLE "0:"
    INDEX 01 00:57:02
  TRACK 46 AUDIO
    TITLE "17:cjc171_10063"
    INDEX 01 00:57:22
  TRACK 47 AUDIO
    TITLE "0:"
    INDEX 01 00:59:39
  TRACK 48 AUDIO
    TITLE "18:cjc171_10064"
    INDEX 01 01:00:07
  TRACK 49 AUDIO
    TITLE "0:"
    INDEX 01 01:02:23
  TRACK 50 AUDIO
    TITLE "16:cjc171_10065"
    INDEX 01 01:03:23
  TRACK 51 AUDIO
    TITLE "0:"
    INDEX 01 01:04:36
  TRACK 52 AUDIO
    TITLE "17:cjc171_10066"
    INDEX 01 01:04:65
  TRACK 53 AUDIO
    TITLE "0:"
    INDEX 01 01:06:44
  TRACK 54 AUDIO
    TITLE "18:cjc171_10067"
    INDEX 01 01:07:22
  TRACK 55 AUDIO
    TITLE "0:"
    INDEX 01 01:09:02
  TRACK 56 AUDIO
    TITLE "16:cjc171_10068"
    INDEX 01 01:10:05
  TRACK 57 AUDIO
    TITLE "0:"
    INDEX 01 01:11:20
  TRACK 58 AUDIO
    TITLE "17:cjc171_10069"
    INDEX 01 01:11:52
  TRACK 59 AUDIO
    TITLE "0:"
    INDEX 01 01:13:46
  TRACK 60 AUDIO
    TITLE "18:cjc171_10070"
    INDEX 01 01:14:24
  TRACK 61 AUDIO
    TITLE "0:"
    INDEX 01 01:16:19
  TRACK 62 AUDIO
    TITLE "16:cjc171_10071"
    INDEX 01 01:17:19
  TRACK 63 AUDIO
    TITLE "0:"
    INDEX 01 01:18:26
  TRACK 64 AUDIO
    TITLE "17:cjc171_10072"
    INDEX 01 01:18:48
  TRACK 65 AUDIO
    TITLE "0:"
    INDEX 01 01:20:25
  TRACK 66 AUDIO
    TITLE "18:cjc171_10073"
    INDEX 01 01:20:70
  TRACK 67 AUDIO
    TITLE "0:"
    INDEX 01 01:22:47
  TRACK 68 AUDIO
    TITLE "16:cjc171_10074"
    INDEX 01 01:23:43
  TRACK 69 AUDIO
    TITLE "0:"
    INDEX 01 01:24:60
  TRACK 70 AUDIO
    TITLE "17:cjc171_10075"
    INDEX 01 01:25:10
  TRACK 71 AUDIO
    TITLE "0:"
    INDEX 01 01:27:05
  TRACK 72 AUDIO
    TITLE "18:cjc171_10076"
    INDEX 01 01:27:54
  TRACK 73 AUDIO
    TITLE "0:"
    INDEX 01 01:29:49
  TRACK 74 AUDIO
    TITLE "16:cjc171_10077"
    INDEX 01 01:30:53
  TRACK 75 AUDIO
    TITLE "0:"
    INDEX 01 01:31:74
  TRACK 76 AUDIO
    TITLE "17:cjc171_10078"
    INDEX 01 01:32:26
  TRACK 77 AUDIO
    TITLE "0:"
    INDEX 01 01:34:13
  TRACK 78 AUDIO
    TITLE "18:cjc171_10079"
    INDEX 01 01:34:66
  TRACK 79 AUDIO
    TITLE "0:"
    INDEX 01 01:36:53
  TRACK 80 AUDIO
    TITLE "16:cjc171_10080"
    INDEX 01 01:37:57
  TRACK 81 AUDIO
    TITLE "0:"
    INDEX 01 01:39:11
  TRACK 82 AUDIO
    TITLE "17:cjc171_10081"
    INDEX 01 01:39:42
  TRACK 83 AUDIO
    TITLE "0:"
    INDEX 01 01:42:21
  TRACK 84 AUDIO
    TITLE "18:cjc171_10082"
    INDEX 01 01:43:01
  TRACK 85 AUDIO
    TITLE "0:"
    INDEX 01 01:45:54
  TRACK 86 AUDIO
    TITLE "16:cjc171_10083"
    INDEX 01 01:46:60
  TRACK 87 AUDIO
    TITLE "0:"
    INDEX 01 01:47:63
  TRACK 88 AUDIO
    TITLE "17:cjc171_10084"
    INDEX 01 01:48:08
  TRACK 89 AUDIO
    TITLE "0:"
    INDEX 01 01:50:01
  TRACK 90 AUDIO
    TITLE "18:cjc171_10085"
    INDEX 01 01:50:44
  TRACK 91 AUDIO
    TITLE "0:"
    INDEX 01 01:52:37
  TRACK 92 AUDIO
    TITLE "16:cjc171_10086"
    INDEX 01 01:53:32
  TRACK 93 AUDIO
    TITLE "0:"
    INDEX 01 01:54:36
  TRACK 94 AUDIO
    TITLE "17:cjc171_10087"
    INDEX 01 01:54:55
  TRACK 95 AUDIO
    TITLE "0:"
    INDEX 01 01:56:31
  TRACK 96 AUDIO
    TITLE "18:cjc171_10088"
    INDEX 01 01:57:03
  TRACK 97 AUDIO
    TITLE "0:"
    INDEX 01 01:58:53
  TRACK 98 AUDIO
    TITLE "16:cjc171_10089"
    INDEX 01 01:59:54
  TRACK 99 AUDIO
    TITLE "0:"
    INDEX 01 02:00:70
  TRACK 100 AUDIO
    TITLE "17:cjc171_10090"
    INDEX 01 02:01:24
  TRACK 101 AUDIO
    TITLE "0:"
    INDEX 01 02:03:23
  TRACK 102 AUDIO
    TITLE "18:cjc171_10091"
    INDEX 01 02:04:03
  TRACK 103 AUDIO
    TITLE "0:"
    INDEX 01 02:06:02
  TRACK 104 AUDIO
    TITLE "16:cjc171_10092"
    INDEX 01 02:07:05
  TRACK 105 AUDIO
    TITLE "0:"
    INDEX 01 02:08:20
  TRACK 106 AUDIO
    TITLE "17:cjc171_10093"
    INDEX 01 02:08:49
  TRACK 107 AUDIO
    TITLE "0:"
    INDEX 01 02:10:74
  TRACK 108 AUDIO
    TITLE "18:cjc171_10094"
    INDEX 01 02:11:52
  TRACK 109 AUDIO
    TITLE "0:"
    INDEX 01 02:13:74
  TRACK 110 AUDIO
    TITLE "16:cjc171_10095"
    INDEX 01 02:15:01
  TRACK 111 AUDIO
    TITLE "0:"
    INDEX 01 02:16:02
  TRACK 112 AUDIO
    TITLE "17:cjc171_10096"
    INDEX 01 02:16:22
  TRACK 113 AUDIO
    TITLE "0:"
    INDEX 01 02:18:64
  TRACK 114 AUDIO
    TITLE "18:cjc171_10097"
    INDEX 01 02:19:34
  TRACK 115 AUDIO
    TITLE "0:"
    INDEX 01 02:22:03
  TRACK 116 AUDIO
    TITLE "16:cjc171_10098"
    INDEX 01 02:22:71
  TRACK 117 AUDIO
    TITLE "0:"
    INDEX 01 02:24:47
  TRACK 118 AUDIO
    TITLE "17:cjc171_10099"
    INDEX 01 02:24:64
  TRACK 119 AUDIO
    TITLE "0:"
    INDEX 01 02:27:27
  TRACK 120 AUDIO
    TITLE "18:cjc171_10100"
    INDEX 01 02:27:72
  TRACK 121 AUDIO
    TITLE "0:"
    INDEX 01 02:30:33
